
<svg width="32px" height="32px" viewBox="0 0 32 32" version="1.1" xmlns="http://www.w3.org/2000/svg" xmlns:xlink="http://www.w3.org/1999/xlink">
    <g id="Page-1" stroke="none" stroke-width="1" fill="none" fill-rule="evenodd">
        <g id="footway">
            <path d="M26.16,13.722 C26.117,13.338 25.939,13.033 25.627,12.805 L17.819,7.089 C17.534,6.862 17.228,6.684 16.902,6.556 C16.576,6.428 16.213,6.364 15.814,6.364 C15.445,6.364 15.096,6.428 14.769,6.556 C14.442,6.683 14.136,6.848 13.852,7.047 L9.756,10.162 C9.387,10.447 9.201,10.817 9.201,11.271 L9.201,16.348 C9.201,16.747 9.329,17.073 9.585,17.329 C9.841,17.585 10.154,17.713 10.524,17.713 C10.894,17.713 11.2,17.585 11.441,17.329 C11.682,17.073 11.804,16.746 11.804,16.348 L11.804,11.868 L12.572,11.313 L12.572,17.372 L11.463,23.175 L7.623,28.039 C7.311,28.408 7.183,28.821 7.239,29.276 C7.296,29.731 7.51,30.101 7.879,30.385 C8.22,30.669 8.619,30.783 9.074,30.726 C9.53,30.669 9.914,30.442 10.226,30.043 L14.237,24.923 C14.294,24.867 14.337,24.803 14.365,24.731 C14.393,24.659 14.437,24.596 14.493,24.539 C14.55,24.368 14.593,24.227 14.621,24.112 L15.858,17.712 L18.29,30.299 C18.375,30.754 18.602,31.11 18.973,31.366 C19.344,31.622 19.741,31.707 20.168,31.622 C20.623,31.537 20.971,31.309 21.213,30.939 C21.454,30.569 21.533,30.142 21.448,29.659 L19.059,17.371 L19.059,11.44 L23.923,14.981 C24.235,15.209 24.584,15.309 24.968,15.28 C25.352,15.251 25.657,15.081 25.885,14.768 C26.112,14.455 26.205,14.106 26.162,13.722 L26.16,13.722 Z M18.246,1.115 C17.734,0.603 17.108,0.347 16.369,0.347 C15.63,0.347 14.997,0.603 14.47,1.115 C13.943,1.627 13.681,2.252 13.681,2.992 C13.681,3.732 13.945,4.365 14.47,4.891 C14.997,5.418 15.63,5.68 16.369,5.68 C17.108,5.68 17.734,5.417 18.246,4.891 C18.758,4.365 19.014,3.732 19.014,2.992 C19.014,2.252 18.758,1.627 18.246,1.115 Z" id="Shape" fill="#000000" fill-rule="nonzero"></path>
            <rect id="Rectangle" x="0" y="0" width="32" height="32"></rect>
        </g>
    </g>
</svg>